<svg xmlns="http://www.w3.org/2000/svg" viewBox="0 0 512 512" width="512" height="512">
  <defs>
    <linearGradient id="bodyBg" x1="0" y1="0" x2="0" y2="1">
      <stop offset="0%" stop-color="#2D2F34" />
      <stop offset="50%" stop-color="#1A1C1F" />
      <stop offset="100%" stop-color="#0E0F11" />
    </linearGradient>
    <linearGradient id="rastaBezelLinear" x1="0" y1="0" x2="1" y2="1">
      <stop offset="0%" stop-color="#D21034" />
      <stop offset="35%" stop-color="#FFD100" />
      <stop offset="65%" stop-color="#009B3A" />
      <stop offset="100%" stop-color="#D21034" />
    </linearGradient>
    <linearGradient id="chromeRing" x1="0" y1="0" x2="1" y2="1">
      <stop offset="0%" stop-color="#F2F5F8" />
      <stop offset="25%" stop-color="#7A8793" />
      <stop offset="50%" stop-color="#E2E7EC" />
      <stop offset="75%" stop-color="#3A444D" />
      <stop offset="100%" stop-color="#9FB1C1" />
    </linearGradient>
    <radialGradient id="lensReflectiveGrad" cx="40%" cy="40%" r="60%">
      <stop offset="0%" stop-color="#4ADE80" stop-opacity="0.8"/>
      <stop offset="30%" stop-color="#FFD100" stop-opacity="0.5"/>
      <stop offset="70%" stop-color="#D21034" stop-opacity="0.3"/>
      <stop offset="100%" stop-color="#050608" stop-opacity="1"/>
    </radialGradient>
    <radialGradient id="ledGlow" cx="50%" cy="50%" r="50%">
      <stop offset="0%" stop-color="#FFFFFF" />
      <stop offset="25%" stop-color="#FF3B30" />
      <stop offset="60%" stop-color="#800000" />
      <stop offset="100%" stop-color="#000000" />
    </radialGradient>
    <radialGradient id="ledGlowOuter" cx="50%" cy="50%" r="50%">
      <stop offset="0%" stop-color="#FF3B30" stop-opacity="0.9" />
      <stop offset="100%" stop-color="#FF3B30" stop-opacity="0" />
    </radialGradient>
    <filter id="dropShadow" x="-20%" y="-20%" width="140%" height="140%">
      <feDropShadow dx="3" dy="6" stdDeviation="5" flood-color="#000000" flood-opacity="0.9"/>
    </filter>
  </defs>
  <rect x="12" y="12" width="488" height="488" rx="100" fill="url(#bodyBg)" stroke="url(#rastaBezelLinear)" stroke-width="14"/>
  <rect x="23" y="23" width="466" height="466" rx="90" fill="none" stroke="#222528" stroke-width="4" opacity="0.6"/>
  <g transform="translate(415, 75)">
    <circle cx="0" cy="0" r="22" fill="#151719" stroke="#333" stroke-width="2"/>
    <circle cx="0" cy="0" r="16" fill="url(#ledGlowOuter)" opacity="0.8"/>
    <circle cx="0" cy="0" r="12" fill="url(#ledGlow)"/>
    <circle cx="-3" cy="-3" r="3" fill="#FFF" opacity="0.6"/>
  </g>
  <path d="M 256 50 A 206 206 0 0 0 71 180 L 115 195 A 156 156 0 0 1 256 95 Z" fill="#D21034" opacity="0.95" />
  <path d="M 256 50 A 206 206 0 0 1 430 160 L 382 180 A 156 156 0 0 0 256 95 Z" fill="#FFD100" opacity="0.95" />
  <path d="M 71 180 A 206 206 0 0 0 350 435 L 330 388 A 156 156 0 0 1 115 195 Z" fill="#009B3A" opacity="0.95" />
  <g transform="translate(256, 256)">
    <circle cx="0" cy="0" r="142" fill="#1E2024" stroke="url(#chromeRing)" stroke-width="7" filter="url(#dropShadow)"/>
    <circle cx="0" cy="0" r="130" fill="#0C0D0E" stroke="#3B424A" stroke-width="3" />
    <circle cx="0" cy="0" r="122" fill="none" stroke="#16181C" stroke-width="2" />
    <circle cx="0" cy="0" r="116" fill="none" stroke="#22252A" stroke-width="1.5" />
    <circle cx="0" cy="0" r="110" fill="none" stroke="#101114" stroke-width="2" />
    <circle cx="0" cy="0" r="102" fill="none" stroke="#2D323A" stroke-width="1" />
    <circle cx="0" cy="0" r="95" fill="none" stroke="url(#chromeRing)" stroke-width="4" />
    <circle cx="0" cy="0" r="88" fill="#040506" />
    <circle cx="0" cy="0" r="84" fill="url(#lensReflectiveGrad)" />
    <ellipse cx="-35" cy="-35" rx="20" ry="10" transform="rotate(-40 -35 -35)" fill="#FFFFFF" opacity="0.45" />
    <ellipse cx="40" cy="40" rx="12" ry="6" transform="rotate(-40 40 40)" fill="#FFFFFF" opacity="0.25" />
  </g>
  <g filter="url(#dropShadow)" transform="translate(0, 15)">
    <text x="256" y="360" text-anchor="middle" font-family="'Impact', 'Arial Black', system-ui, -apple-system, sans-serif" font-size="76" font-weight="900" font-style="italic" fill="#FFD100" stroke="#000" stroke-width="8" stroke-linejoin="round" letter-spacing="-2px">
      RIDDIM
    </text>
    <text x="256" y="425" text-anchor="middle" font-family="'Impact', 'Arial Black', system-ui, -apple-system, sans-serif" font-size="70" font-weight="900" font-style="italic" fill="#FFFFFF" stroke="#000" stroke-width="8" stroke-linejoin="round" letter-spacing="-3px">
      ROOM<tspan font-family="'Impact', sans-serif" font-size="38" fill="#FFFFFF" font-style="italic">.COM</tspan>
    </text>
  </g>
  <g transform="translate(0, 32)">
    <rect x="130" y="416" width="252" height="28" rx="6" fill="#009B3A" stroke="#FFD100" stroke-width="2" filter="url(#dropShadow)" />
    <rect x="135" y="420" width="10" height="20" rx="1" fill="#D21034" />
    <rect x="145" y="420" width="10" height="20" rx="1" fill="#FFD100" />
    <rect x="357" y="420" width="10" height="20" rx="1" fill="#FFD100" />
    <rect x="367" y="420" width="10" height="20" rx="1" fill="#D21034" />
    <text x="256" y="434" text-anchor="middle" font-family="'Space Grotesk', 'Arial Black', sans-serif" font-size="12" font-weight="900" fill="#FFFFFF" letter-spacing="3.5px">
      EVENT CAMERA
    </text>
  </g>
</svg>
